<svg width="18" height="18" viewBox="0 0 18 18" fill="none" xmlns="http://www.w3.org/2000/svg">
<path d="M5.79938 10.547H5.80022C5.80092 10.547 5.80162 10.5469 5.80229 10.5469H15.3633C15.4779 10.5469 15.5893 10.5095 15.6808 10.4405C15.7723 10.3715 15.8388 10.2746 15.8703 10.1644L17.9797 2.7816C18.0021 2.70313 18.006 2.62053 17.9911 2.5403C17.9762 2.46007 17.9428 2.38439 17.8937 2.31922C17.8446 2.25405 17.7809 2.20118 17.7079 2.16476C17.6348 2.12835 17.5543 2.10939 17.4727 2.10938H4.58321L4.20627 0.412945C4.18022 0.295815 4.11501 0.191067 4.02141 0.115992C3.9278 0.0409168 3.8114 1.62059e-06 3.69141 0L0.527344 0C0.236074 0 0 0.236074 0 0.527344C0 0.818613 0.236074 1.05469 0.527344 1.05469H3.26844C3.33517 1.35527 5.07238 9.1729 5.17236 9.62262C4.61194 9.86625 4.21875 10.4251 4.21875 11.0742C4.21875 11.9465 4.92848 12.6562 5.80078 12.6562H15.3633C15.6546 12.6562 15.8906 12.4202 15.8906 12.1289C15.8906 11.8376 15.6546 11.6016 15.3633 11.6016H5.80078C5.51004 11.6016 5.27344 11.365 5.27344 11.0742C5.27344 10.7839 5.50923 10.5477 5.79938 10.547ZM16.7735 3.16406L14.9655 9.49219H6.22378L4.81753 3.16406H16.7735ZM5.27344 14.2383C5.27344 15.1106 5.98317 15.8203 6.85547 15.8203C7.72777 15.8203 8.4375 15.1106 8.4375 14.2383C8.4375 13.366 7.72777 12.6562 6.85547 12.6562C5.98317 12.6562 5.27344 13.366 5.27344 14.2383ZM6.85547 13.7109C7.14621 13.7109 7.38281 13.9475 7.38281 14.2383C7.38281 14.529 7.14621 14.7656 6.85547 14.7656C6.56473 14.7656 6.32812 14.529 6.32812 14.2383C6.32812 13.9475 6.56473 13.7109 6.85547 13.7109ZM12.7266 14.2383C12.7266 15.1106 13.4363 15.8203 14.3086 15.8203C15.1809 15.8203 15.8906 15.1106 15.8906 14.2383C15.8906 13.366 15.1809 12.6562 14.3086 12.6562C13.4363 12.6562 12.7266 13.366 12.7266 14.2383ZM14.3086 13.7109C14.5993 13.7109 14.8359 13.9475 14.8359 14.2383C14.8359 14.529 14.5993 14.7656 14.3086 14.7656C14.0179 14.7656 13.7812 14.529 13.7812 14.2383C13.7812 13.9475 14.0179 13.7109 14.3086 13.7109Z" fill="#F97316"/>
</svg>
