<svg width="18" height="18" viewBox="0 0 18 18" fill="none" xmlns="http://www.w3.org/2000/svg">
<path d="M8.99998 16.0142C8.74369 16.0142 8.49669 15.9214 8.30414 15.7527C7.57697 15.1169 6.87592 14.5194 6.25738 13.9923L6.25421 13.9896C4.44079 12.4442 2.87483 11.1097 1.78527 9.795C0.567315 8.32537 0 6.93184 0 5.40955C0 3.93053 0.507163 2.56601 1.42794 1.56722C2.35972 0.556623 3.63824 3.05176e-05 5.02842 3.05176e-05C6.06746 3.05176e-05 7.019 0.32853 7.8566 0.976318C8.27928 1.30327 8.66241 1.70345 8.99998 2.17022C9.33766 1.70345 9.72068 1.30327 10.1435 0.976318C10.9811 0.32853 11.9326 3.05176e-05 12.9717 3.05176e-05C14.3617 3.05176e-05 15.6404 0.556623 16.5722 1.56722C17.4929 2.56601 18 3.93053 18 5.40955C18 6.93181 17.4328 8.32533 16.2148 9.79486C15.1252 11.1097 13.5594 12.4441 11.7463 13.9893C11.1266 14.5172 10.4245 15.1157 9.69569 15.753C9.50308 15.9215 9.25587 16.0143 8.99998 16.0142ZM5.02842 1.05443C3.93626 1.05443 2.93294 1.49034 2.20303 2.28188C1.46229 3.08541 1.05426 4.19613 1.05426 5.40955C1.05426 6.68986 1.5301 7.8349 2.59702 9.12225C3.62822 10.3666 5.16205 11.6737 6.938 13.1872L6.94127 13.1899C7.56213 13.719 8.26596 14.3189 8.99847 14.9594C9.73538 14.3177 10.4403 13.7168 11.0624 13.1869C12.8382 11.6734 14.3719 10.3666 15.4031 9.12225C16.4699 7.8349 16.9457 6.68986 16.9457 5.40955C16.9457 4.1961 16.5377 3.08537 15.7969 2.28188C15.0672 1.49034 14.0637 1.05443 12.9717 1.05443C12.1716 1.05443 11.437 1.30879 10.7884 1.81029C10.2104 2.25744 9.80777 2.82269 9.57166 3.21819C9.4503 3.42157 9.23662 3.54296 8.99998 3.54296C8.76335 3.54296 8.54967 3.42157 8.42827 3.21819C8.19237 2.82269 7.7897 2.25744 7.21152 1.81029C6.56296 1.30879 5.82837 1.05443 5.02842 1.05443Z" fill="#F97316"/>
</svg>
