<svg width="24" height="24" viewBox="0 0 24 24" fill="none" xmlns="http://www.w3.org/2000/svg">
<path d="M18.4352 16.3745C18.1423 16.0816 17.6674 16.0816 17.3745 16.3745C17.0816 16.6674 17.0816 17.1422 17.3745 17.4351L18.4352 16.3745ZM20.7004 20.7611C20.9933 21.054 21.4682 21.054 21.7611 20.7611C22.054 20.4682 22.054 19.9933 21.7611 19.7004L20.7004 20.7611ZM17.3745 17.4351L20.7004 20.7611L21.7611 19.7004L18.4352 16.3745L17.3745 17.4351ZM11.2528 16.9862C7.53393 16.9862 4.51923 13.9715 4.51923 10.2527H3.01923C3.01923 14.8 6.7055 18.4862 11.2528 18.4862V16.9862ZM17.9863 10.2527C17.9863 13.9715 14.9716 16.9862 11.2528 16.9862V18.4862C15.8 18.4862 19.4863 14.8 19.4863 10.2527H17.9863ZM11.2528 3.51917C14.9716 3.51917 17.9863 6.53387 17.9863 10.2527H19.4863C19.4863 5.70544 15.8 2.01917 11.2528 2.01917V3.51917ZM11.2528 2.01917C6.7055 2.01917 3.01923 5.70544 3.01923 10.2527H4.51923C4.51923 6.53387 7.53393 3.51917 11.2528 3.51917V2.01917Z" fill="white"/>
</svg>
