<svg width="47" height="44" viewBox="0 0 47 44" fill="none" xmlns="http://www.w3.org/2000/svg">
<rect width="47" height="44" rx="10" fill="#F97316"/>
<path d="M29.4352 26.3745C29.1423 26.0816 28.6674 26.0816 28.3745 26.3745C28.0816 26.6674 28.0816 27.1422 28.3745 27.4351L29.4352 26.3745ZM31.7004 30.7611C31.9933 31.054 32.4682 31.054 32.7611 30.7611C33.054 30.4682 33.054 29.9933 32.7611 29.7004L31.7004 30.7611ZM28.3745 27.4351L31.7004 30.7611L32.7611 29.7004L29.4352 26.3745L28.3745 27.4351ZM22.2528 26.9862C18.5339 26.9862 15.5192 23.9715 15.5192 20.2527H14.0192C14.0192 24.8 17.7055 28.4862 22.2528 28.4862V26.9862ZM28.9863 20.2527C28.9863 23.9715 25.9716 26.9862 22.2528 26.9862V28.4862C26.8 28.4862 30.4863 24.8 30.4863 20.2527H28.9863ZM22.2528 13.5192C25.9716 13.5192 28.9863 16.5339 28.9863 20.2527H30.4863C30.4863 15.7054 26.8 12.0192 22.2528 12.0192V13.5192ZM22.2528 12.0192C17.7055 12.0192 14.0192 15.7054 14.0192 20.2527H15.5192C15.5192 16.5339 18.5339 13.5192 22.2528 13.5192V12.0192Z" fill="white"/>
</svg>
