<svg width="18" height="18" viewBox="0 0 18 18" fill="none" xmlns="http://www.w3.org/2000/svg">
<path d="M11.5259 6.63578L11.5259 6.63574C12.2282 5.93353 12.5789 5.08679 12.5789 4.09435C12.5789 3.1023 12.2282 2.25546 11.5258 1.55293C10.8234 0.850761 9.97653 0.5 8.98435 0.5C7.99187 0.5 7.14509 0.850765 6.44289 1.553C5.74063 2.25528 5.38974 3.10218 5.38974 4.09435C5.38974 5.08674 5.7406 5.93361 6.44296 6.63586L11.5259 6.63578ZM11.5259 6.63578C10.8237 7.33812 9.97667 7.68892 8.98435 7.68892M11.5259 6.63578L8.98435 7.68892M2.91208 11.0704C2.81328 11.3792 2.7295 11.7209 2.66393 12.0862L2.91208 11.0704ZM2.91208 11.0704C3.01117 10.7609 3.14644 10.4536 3.31457 10.1576L3.31459 10.1576C3.48455 9.8583 3.68079 9.60442 3.89471 9.39959L2.91208 11.0704ZM2.83844 16.2119C3.38784 16.7348 4.11479 17 4.99881 17H13.1844C14.0684 17 14.7951 16.7349 15.3446 16.212C15.901 15.6825 16.1831 14.964 16.1831 14.0762M2.83844 16.2119L3.18327 15.8499C3.18322 15.8498 3.18317 15.8498 3.18313 15.8497M2.83844 16.2119L3.18313 15.8497M2.83844 16.2119L2.53284 13.107C2.51078 13.4295 2.49985 13.7527 2.50006 14.076L2.50006 14.0763C2.50006 14.8499 2.7416 15.4291 3.18313 15.8497M3.18313 15.8497C3.62431 16.2696 4.22037 16.5 4.99881 16.5H13.1844C13.9628 16.5 14.5586 16.2697 14.9999 15.8498L15 15.8497C15.4415 15.4296 15.6831 14.8505 15.6831 14.0764L16.1831 14.0762M16.1831 14.0762H15.6831M16.1831 14.0762C16.183 13.7337 16.1715 13.3958 16.1488 13.0721C16.1258 12.7408 16.0794 12.3795 16.011 11.9979L15.5188 12.0861C15.5189 12.0862 15.5189 12.0862 15.5189 12.0862M15.6831 14.0762L14.8682 10.1578C15.0364 10.4537 15.1717 10.7611 15.2706 11.0703L15.2706 11.0704C15.3695 11.3791 15.4533 11.7209 15.5189 12.0862M15.6831 14.0762C15.683 13.7446 15.6718 13.4185 15.65 13.1071L15.65 13.1067C15.6284 12.7962 15.5846 12.453 15.5189 12.0862M15.6831 14.0762L15.5189 12.0862M14.2878 9.39956L14.2877 9.39946C14.0746 9.19558 13.8075 9.02561 13.4874 8.8987C13.179 8.77681 12.8292 8.71177 12.4439 8.71177C12.4435 8.71177 12.4431 8.71176 12.4426 8.71175C12.4267 8.7115 12.3623 8.71048 12.0513 8.913C11.8196 9.06386 11.5872 9.21365 11.3542 9.36238L11.3539 9.36256C11.0826 9.53545 10.7375 9.68411 10.3419 9.81191M14.2878 9.39956L10.3419 9.81191M14.2878 9.39956C14.5016 9.60402 14.6978 9.85798 14.8682 10.1577L14.2878 9.39956ZM10.3419 9.81191C9.93113 9.94479 9.51023 10.0134 9.0912 10.0134C8.67208 10.0134 8.25124 9.94475 7.84016 9.81188M10.3419 9.81191L7.84016 9.81188M7.84016 9.81188C7.44503 9.6842 7.09988 9.53556 6.8287 9.36257L6.82837 9.36236C6.56945 9.19691 6.33476 9.04565 6.13078 8.91275L6.1307 8.9127C5.82021 8.71032 5.75565 8.71134 5.73985 8.71159C5.73936 8.71159 5.73891 8.7116 5.73851 8.7116C5.35305 8.7116 5.00333 8.77679 4.69505 8.89891L4.69495 8.89895C4.37527 9.02551 4.10815 9.19539 3.89482 9.39948L7.84016 9.81188ZM8.98435 7.68892C7.99234 7.68892 7.14542 7.33807 6.44299 6.63589L8.98435 7.68892ZM2.53285 13.1068C2.55439 12.7956 2.59825 12.4523 2.66393 12.0862L2.53285 13.1068Z" stroke="#F97316"/>
</svg>
