<svg width="52" height="53" viewBox="0 0 52 53" fill="none" xmlns="http://www.w3.org/2000/svg">
<mask id="path-1-outside-1_194_39" maskUnits="userSpaceOnUse" x="0" y="0.00012207" width="52" height="53" fill="black">
<rect fill="white" y="0.00012207" width="52" height="53"/>
<path d="M32.0074 47.0001C30.6842 46.9995 29.3809 46.6602 28.2101 46.0113C26.7913 46.6959 25.242 47.0284 23.6818 46.9833C22.1216 46.9383 20.592 46.5167 19.211 45.7513C19.0654 45.6749 18.9037 45.6391 18.7412 45.6472C18.5787 45.6553 18.4209 45.707 18.2828 45.7975C16.9059 46.6371 15.3259 47.0354 13.7369 46.9436C12.1479 46.8517 10.619 46.2737 9.33765 45.2804C8.05635 44.2872 7.07847 42.9219 6.52399 41.3521C5.96951 39.7823 5.86256 38.0764 6.21627 36.4435C6.55607 34.9105 7.29548 33.5075 8.35139 32.3924C9.4073 31.2773 10.7378 30.4942 12.1935 30.1312C13.4622 29.8095 14.7854 29.8095 16.0542 30.1312C16.1342 30.1572 16.2195 30.1592 16.3005 30.1368C16.3816 30.1144 16.455 30.0686 16.5126 30.0046C17.3975 28.9436 18.4798 28.0849 19.6926 27.4816C20.9054 26.8783 22.2229 26.5432 23.5636 26.497C24.9044 26.4508 26.2399 26.6946 27.4876 27.2131C28.7352 27.7317 29.8686 28.5141 30.8175 29.5119C30.9232 29.6266 31.1703 29.8883 32.0107 29.8883C33.2284 29.8869 34.4307 30.1744 35.5283 30.7294C36.6259 31.2844 37.5905 32.0927 38.3504 33.0941C38.4272 33.2113 38.5369 33.3004 38.6641 33.349C39.4488 33.2563 40.2432 33.3307 41 33.5679C41.9232 33.8579 42.7597 34.3937 43.4286 35.1234C44.0975 35.8531 44.5763 36.7521 44.8185 37.7334C45.0819 38.7577 45.082 39.8372 44.8187 40.8615C44.5553 41.8858 44.038 42.8181 43.3197 43.5629C42.6015 44.3076 41.708 44.8381 40.7309 45.1C39.7537 45.3619 38.728 45.3458 37.7587 45.0533C37.3116 44.9216 37.2206 45.002 37.18 45.0362C35.7299 46.3124 33.8978 47.0081 32.0074 47.0001ZM28.1288 42.5677C28.6889 42.5672 29.2404 42.7118 29.7349 42.9885C30.5832 43.4474 31.5394 43.6385 32.4884 43.5389C33.4375 43.4394 34.3391 43.0534 35.0846 42.4274C35.5751 42.005 36.1607 41.7223 36.785 41.6067C37.4093 41.4911 38.0513 41.5463 38.6495 41.7671C39.0684 41.8953 39.5124 41.9028 39.9351 41.7889C40.3577 41.675 40.7436 41.4438 41.0524 41.1195C41.3613 40.7952 41.5818 40.3896 41.6909 39.9451C41.8001 39.5005 41.7939 39.0333 41.673 38.5921C41.5691 38.1846 41.3685 37.8116 41.0902 37.5079C40.8119 37.2042 40.4648 36.9798 40.0816 36.8558C39.7429 36.7499 39.3877 36.7156 39.0363 36.7549C38.4213 36.812 37.8025 36.703 37.2387 36.4381C36.6748 36.1731 36.1846 35.7611 35.8145 35.2409C34.1223 32.5039 30.3461 34.1102 28.4995 31.924C27.8666 31.2595 27.111 30.7386 26.2794 30.3935C25.4478 30.0484 24.5577 29.8864 23.6642 29.9175C22.7707 29.9486 21.8928 30.1721 21.0846 30.5743C20.2765 30.9765 19.5553 31.5488 18.9655 32.2558C18.517 32.7943 17.9358 33.1919 17.286 33.4047C16.6363 33.6175 15.9434 33.6373 15.2837 33.4619C14.5092 33.2685 13.7026 33.2685 12.9282 33.4619C12.1366 33.6713 11.4076 34.0866 10.8081 34.6695C10.2085 35.2524 9.75764 35.9844 9.4967 36.7983C9.23576 37.6123 9.17314 38.4821 9.31457 39.3281C9.45599 40.1741 9.79695 40.9692 10.3062 41.6405C11.054 42.5921 12.0966 43.2358 13.2507 43.4586C14.4048 43.6814 15.5966 43.4689 16.6166 42.8585C17.2402 42.4629 17.9508 42.2448 18.6787 42.2256C19.4066 42.2064 20.1267 42.3868 20.7683 42.7491C21.6742 43.2591 22.6808 43.5393 23.7079 43.5672C24.735 43.5952 25.754 43.37 26.6837 42.9099C27.1351 42.6838 27.6289 42.5669 28.1288 42.5677ZM43.1831 31.6041C43.0456 31.6041 42.9086 31.5862 42.7751 31.551C42.5683 31.4948 42.3741 31.3963 42.2035 31.2611C42.0329 31.1259 41.8893 30.9566 41.7809 30.7629C41.6726 30.5693 41.6015 30.355 41.5718 30.1324C41.5421 29.9099 41.5544 29.6833 41.608 29.4657C41.7887 28.717 41.8103 27.9355 41.6714 27.1769C41.5019 26.3158 41.1265 25.5145 40.5806 24.8488C40.0348 24.183 39.3365 23.6749 38.5519 23.3724C37.611 22.9979 36.5807 22.9517 35.6129 23.2406C34.9891 23.4351 34.3247 23.4322 33.7025 23.2323C33.0802 23.0325 32.5275 22.6446 32.1131 22.1167C31.4435 21.2724 30.59 20.6108 29.6251 20.1883C28.6603 19.7658 27.6127 19.5949 26.5716 19.6902C25.5305 19.7854 24.5267 20.144 23.6456 20.7354C22.7645 21.3267 22.0323 22.1334 21.5112 23.0867C21.1732 23.7339 20.6482 24.2512 20.0123 24.5637C19.3764 24.8762 18.6625 24.9676 17.974 24.8247C17.4956 24.7219 17.0006 24.7436 16.5321 24.888C16.0259 25.0406 15.5609 25.3162 15.1746 25.6927C14.7883 26.0692 14.4916 26.536 14.3083 27.0554C14.2355 27.2667 14.1239 27.4608 13.9798 27.6267C13.8357 27.7926 13.662 27.927 13.4686 28.0222C13.2751 28.1174 13.0658 28.1716 12.8524 28.1817C12.6391 28.1918 12.4259 28.1576 12.2252 28.081C12.0244 28.0044 11.8399 27.8869 11.6823 27.7353C11.5247 27.5836 11.397 27.4008 11.3065 27.1973C11.216 26.9937 11.1645 26.7734 11.1549 26.5488C11.1453 26.3243 11.1778 26.1 11.2506 25.8888C11.6081 24.857 12.1935 23.9294 12.9586 23.1826C13.7237 22.4357 14.6465 21.891 15.651 21.5933C16.6181 21.3036 17.6372 21.2626 18.6226 21.4735C19.4008 20.0276 20.5004 18.8017 21.8272 17.9007C23.154 16.9997 24.6685 16.4505 26.241 16.3C27.8136 16.1495 29.3974 16.4022 30.8569 17.0366C32.3163 17.671 33.608 18.668 34.6213 19.9425C36.0012 19.5238 37.4618 19.4968 38.8547 19.8642C40.2477 20.2316 41.5236 20.9803 42.5527 22.0343C43.5819 23.0883 44.3277 24.4101 44.7145 25.8655C45.1013 27.3209 45.1153 28.8581 44.7551 30.3211C44.6651 30.6879 44.4619 31.013 44.1774 31.2452C43.8929 31.4774 43.5432 31.6036 43.1831 31.6041ZM8.17182 23.0508C7.86543 23.0498 7.56551 22.9578 7.30666 22.7853C7.04781 22.6128 6.84057 22.3668 6.70882 22.0757C6.26471 21.0939 6.02367 20.0242 6.00166 18.9371C5.97964 17.8501 6.17714 16.7705 6.5811 15.7697C6.98506 14.769 7.58627 13.8699 8.345 13.1318C9.10372 12.3938 10.0027 11.8336 10.9824 11.4884C12.2768 11.0148 13.6741 10.9477 15.0041 11.2951C14.9878 11.2951 15.0463 11.2438 15.0886 11.1531C15.7815 9.71919 16.8117 8.49579 18.081 7.59933C19.3503 6.70287 20.8165 6.1632 22.34 6.03168C23.8635 5.90016 25.3937 6.18117 26.7848 6.84795C28.176 7.51474 29.3818 8.54512 30.2876 9.84101C31.7579 9.29369 33.3545 9.24698 34.8515 9.7075C36.3484 10.168 37.6697 11.1124 38.6283 12.407C38.9323 12.8159 39.1062 12.8364 39.2786 12.8586C39.3289 12.8586 39.4931 12.8911 39.5435 12.9014C40.2138 13.0547 40.846 13.3549 41.3988 13.7822C41.9517 14.2096 42.4128 14.7546 42.7524 15.3819C42.9658 15.7761 43.0216 16.2434 42.9076 16.681C42.7936 17.1186 42.5191 17.4906 42.1444 17.7152C41.7698 17.9398 41.3257 17.9985 40.9099 17.8786C40.4941 17.7586 40.1406 17.4697 39.9272 17.0754C39.8146 16.8658 39.6613 16.6836 39.4773 16.5406C39.2933 16.3977 39.0826 16.2972 38.8592 16.2457C38.3048 16.1808 37.7698 15.9932 37.2893 15.6951C36.8088 15.397 36.3937 14.9953 36.0713 14.5163C35.5378 13.7815 34.7957 13.2448 33.9528 12.9839C33.1098 12.7231 32.2097 12.7517 31.3832 13.0656C30.736 13.3325 30.0226 13.3643 29.3562 13.1561C28.6898 12.9478 28.1085 12.5114 27.7046 11.916C27.1365 11.0783 26.3727 10.4087 25.4871 9.97209C24.6014 9.53545 23.6238 9.34643 22.6485 9.42329C21.6732 9.50015 20.7332 9.84029 19.9192 10.4109C19.1052 10.9815 18.4448 11.7632 18.0016 12.6807C17.6771 13.41 17.1245 14 16.4364 14.3521C15.7482 14.7043 14.966 14.7972 14.2205 14.6155C13.4936 14.4263 12.7299 14.4662 12.0244 14.7301C11.4791 14.9195 10.9784 15.2288 10.5556 15.6375C10.1327 16.0463 9.79731 16.545 9.57174 17.1007C9.34617 17.6564 9.23557 18.2562 9.24729 18.8603C9.25901 19.4644 9.39277 20.059 9.6397 20.6045C9.75755 20.8649 9.81093 21.1524 9.79487 21.4403C9.77882 21.7282 9.69385 22.0072 9.54787 22.2513C9.40189 22.4954 9.19963 22.6967 8.9599 22.8364C8.72018 22.9762 8.45076 23.0499 8.1767 23.0508H8.17182Z"/>
</mask>
<path d="M32.0074 47.0001C30.6842 46.9995 29.3809 46.6602 28.2101 46.0113C26.7913 46.6959 25.242 47.0284 23.6818 46.9833C22.1216 46.9383 20.592 46.5167 19.211 45.7513C19.0654 45.6749 18.9037 45.6391 18.7412 45.6472C18.5787 45.6553 18.4209 45.707 18.2828 45.7975C16.9059 46.6371 15.3259 47.0354 13.7369 46.9436C12.1479 46.8517 10.619 46.2737 9.33765 45.2804C8.05635 44.2872 7.07847 42.9219 6.52399 41.3521C5.96951 39.7823 5.86256 38.0764 6.21627 36.4435C6.55607 34.9105 7.29548 33.5075 8.35139 32.3924C9.4073 31.2773 10.7378 30.4942 12.1935 30.1312C13.4622 29.8095 14.7854 29.8095 16.0542 30.1312C16.1342 30.1572 16.2195 30.1592 16.3005 30.1368C16.3816 30.1144 16.455 30.0686 16.5126 30.0046C17.3975 28.9436 18.4798 28.0849 19.6926 27.4816C20.9054 26.8783 22.2229 26.5432 23.5636 26.497C24.9044 26.4508 26.2399 26.6946 27.4876 27.2131C28.7352 27.7317 29.8686 28.5141 30.8175 29.5119C30.9232 29.6266 31.1703 29.8883 32.0107 29.8883C33.2284 29.8869 34.4307 30.1744 35.5283 30.7294C36.6259 31.2844 37.5905 32.0927 38.3504 33.0941C38.4272 33.2113 38.5369 33.3004 38.6641 33.349C39.4488 33.2563 40.2432 33.3307 41 33.5679C41.9232 33.8579 42.7597 34.3937 43.4286 35.1234C44.0975 35.8531 44.5763 36.7521 44.8185 37.7334C45.0819 38.7577 45.082 39.8372 44.8187 40.8615C44.5553 41.8858 44.038 42.8181 43.3197 43.5629C42.6015 44.3076 41.708 44.8381 40.7309 45.1C39.7537 45.3619 38.728 45.3458 37.7587 45.0533C37.3116 44.9216 37.2206 45.002 37.18 45.0362C35.7299 46.3124 33.8978 47.0081 32.0074 47.0001ZM28.1288 42.5677C28.6889 42.5672 29.2404 42.7118 29.7349 42.9885C30.5832 43.4474 31.5394 43.6385 32.4884 43.5389C33.4375 43.4394 34.3391 43.0534 35.0846 42.4274C35.5751 42.005 36.1607 41.7223 36.785 41.6067C37.4093 41.4911 38.0513 41.5463 38.6495 41.7671C39.0684 41.8953 39.5124 41.9028 39.9351 41.7889C40.3577 41.675 40.7436 41.4438 41.0524 41.1195C41.3613 40.7952 41.5818 40.3896 41.6909 39.9451C41.8001 39.5005 41.7939 39.0333 41.673 38.5921C41.5691 38.1846 41.3685 37.8116 41.0902 37.5079C40.8119 37.2042 40.4648 36.9798 40.0816 36.8558C39.7429 36.7499 39.3877 36.7156 39.0363 36.7549C38.4213 36.812 37.8025 36.703 37.2387 36.4381C36.6748 36.1731 36.1846 35.7611 35.8145 35.2409C34.1223 32.5039 30.3461 34.1102 28.4995 31.924C27.8666 31.2595 27.111 30.7386 26.2794 30.3935C25.4478 30.0484 24.5577 29.8864 23.6642 29.9175C22.7707 29.9486 21.8928 30.1721 21.0846 30.5743C20.2765 30.9765 19.5553 31.5488 18.9655 32.2558C18.517 32.7943 17.9358 33.1919 17.286 33.4047C16.6363 33.6175 15.9434 33.6373 15.2837 33.4619C14.5092 33.2685 13.7026 33.2685 12.9282 33.4619C12.1366 33.6713 11.4076 34.0866 10.8081 34.6695C10.2085 35.2524 9.75764 35.9844 9.4967 36.7983C9.23576 37.6123 9.17314 38.4821 9.31457 39.3281C9.45599 40.1741 9.79695 40.9692 10.3062 41.6405C11.054 42.5921 12.0966 43.2358 13.2507 43.4586C14.4048 43.6814 15.5966 43.4689 16.6166 42.8585C17.2402 42.4629 17.9508 42.2448 18.6787 42.2256C19.4066 42.2064 20.1267 42.3868 20.7683 42.7491C21.6742 43.2591 22.6808 43.5393 23.7079 43.5672C24.735 43.5952 25.754 43.37 26.6837 42.9099C27.1351 42.6838 27.6289 42.5669 28.1288 42.5677ZM43.1831 31.6041C43.0456 31.6041 42.9086 31.5862 42.7751 31.551C42.5683 31.4948 42.3741 31.3963 42.2035 31.2611C42.0329 31.1259 41.8893 30.9566 41.7809 30.7629C41.6726 30.5693 41.6015 30.355 41.5718 30.1324C41.5421 29.9099 41.5544 29.6833 41.608 29.4657C41.7887 28.717 41.8103 27.9355 41.6714 27.1769C41.5019 26.3158 41.1265 25.5145 40.5806 24.8488C40.0348 24.183 39.3365 23.6749 38.5519 23.3724C37.611 22.9979 36.5807 22.9517 35.6129 23.2406C34.9891 23.4351 34.3247 23.4322 33.7025 23.2323C33.0802 23.0325 32.5275 22.6446 32.1131 22.1167C31.4435 21.2724 30.59 20.6108 29.6251 20.1883C28.6603 19.7658 27.6127 19.5949 26.5716 19.6902C25.5305 19.7854 24.5267 20.144 23.6456 20.7354C22.7645 21.3267 22.0323 22.1334 21.5112 23.0867C21.1732 23.7339 20.6482 24.2512 20.0123 24.5637C19.3764 24.8762 18.6625 24.9676 17.974 24.8247C17.4956 24.7219 17.0006 24.7436 16.5321 24.888C16.0259 25.0406 15.5609 25.3162 15.1746 25.6927C14.7883 26.0692 14.4916 26.536 14.3083 27.0554C14.2355 27.2667 14.1239 27.4608 13.9798 27.6267C13.8357 27.7926 13.662 27.927 13.4686 28.0222C13.2751 28.1174 13.0658 28.1716 12.8524 28.1817C12.6391 28.1918 12.4259 28.1576 12.2252 28.081C12.0244 28.0044 11.8399 27.8869 11.6823 27.7353C11.5247 27.5836 11.397 27.4008 11.3065 27.1973C11.216 26.9937 11.1645 26.7734 11.1549 26.5488C11.1453 26.3243 11.1778 26.1 11.2506 25.8888C11.6081 24.857 12.1935 23.9294 12.9586 23.1826C13.7237 22.4357 14.6465 21.891 15.651 21.5933C16.6181 21.3036 17.6372 21.2626 18.6226 21.4735C19.4008 20.0276 20.5004 18.8017 21.8272 17.9007C23.154 16.9997 24.6685 16.4505 26.241 16.3C27.8136 16.1495 29.3974 16.4022 30.8569 17.0366C32.3163 17.671 33.608 18.668 34.6213 19.9425C36.0012 19.5238 37.4618 19.4968 38.8547 19.8642C40.2477 20.2316 41.5236 20.9803 42.5527 22.0343C43.5819 23.0883 44.3277 24.4101 44.7145 25.8655C45.1013 27.3209 45.1153 28.8581 44.7551 30.3211C44.6651 30.6879 44.4619 31.013 44.1774 31.2452C43.8929 31.4774 43.5432 31.6036 43.1831 31.6041ZM8.17182 23.0508C7.86543 23.0498 7.56551 22.9578 7.30666 22.7853C7.04781 22.6128 6.84057 22.3668 6.70882 22.0757C6.26471 21.0939 6.02367 20.0242 6.00166 18.9371C5.97964 17.8501 6.17714 16.7705 6.5811 15.7697C6.98506 14.769 7.58627 13.8699 8.345 13.1318C9.10372 12.3938 10.0027 11.8336 10.9824 11.4884C12.2768 11.0148 13.6741 10.9477 15.0041 11.2951C14.9878 11.2951 15.0463 11.2438 15.0886 11.1531C15.7815 9.71919 16.8117 8.49579 18.081 7.59933C19.3503 6.70287 20.8165 6.1632 22.34 6.03168C23.8635 5.90016 25.3937 6.18117 26.7848 6.84795C28.176 7.51474 29.3818 8.54512 30.2876 9.84101C31.7579 9.29369 33.3545 9.24698 34.8515 9.7075C36.3484 10.168 37.6697 11.1124 38.6283 12.407C38.9323 12.8159 39.1062 12.8364 39.2786 12.8586C39.3289 12.8586 39.4931 12.8911 39.5435 12.9014C40.2138 13.0547 40.846 13.3549 41.3988 13.7822C41.9517 14.2096 42.4128 14.7546 42.7524 15.3819C42.9658 15.7761 43.0216 16.2434 42.9076 16.681C42.7936 17.1186 42.5191 17.4906 42.1444 17.7152C41.7698 17.9398 41.3257 17.9985 40.9099 17.8786C40.4941 17.7586 40.1406 17.4697 39.9272 17.0754C39.8146 16.8658 39.6613 16.6836 39.4773 16.5406C39.2933 16.3977 39.0826 16.2972 38.8592 16.2457C38.3048 16.1808 37.7698 15.9932 37.2893 15.6951C36.8088 15.397 36.3937 14.9953 36.0713 14.5163C35.5378 13.7815 34.7957 13.2448 33.9528 12.9839C33.1098 12.7231 32.2097 12.7517 31.3832 13.0656C30.736 13.3325 30.0226 13.3643 29.3562 13.1561C28.6898 12.9478 28.1085 12.5114 27.7046 11.916C27.1365 11.0783 26.3727 10.4087 25.4871 9.97209C24.6014 9.53545 23.6238 9.34643 22.6485 9.42329C21.6732 9.50015 20.7332 9.84029 19.9192 10.4109C19.1052 10.9815 18.4448 11.7632 18.0016 12.6807C17.6771 13.41 17.1245 14 16.4364 14.3521C15.7482 14.7043 14.966 14.7972 14.2205 14.6155C13.4936 14.4263 12.7299 14.4662 12.0244 14.7301C11.4791 14.9195 10.9784 15.2288 10.5556 15.6375C10.1327 16.0463 9.79731 16.545 9.57174 17.1007C9.34617 17.6564 9.23557 18.2562 9.24729 18.8603C9.25901 19.4644 9.39277 20.059 9.6397 20.6045C9.75755 20.8649 9.81093 21.1524 9.79487 21.4403C9.77882 21.7282 9.69385 22.0072 9.54787 22.2513C9.40189 22.4954 9.19963 22.6967 8.9599 22.8364C8.72018 22.9762 8.45076 23.0499 8.1767 23.0508H8.17182Z" fill="white"/>
<path d="M32.0074 47.0001C30.6842 46.9995 29.3809 46.6602 28.2101 46.0113C26.7913 46.6959 25.242 47.0284 23.6818 46.9833C22.1216 46.9383 20.592 46.5167 19.211 45.7513C19.0654 45.6749 18.9037 45.6391 18.7412 45.6472C18.5787 45.6553 18.4209 45.707 18.2828 45.7975C16.9059 46.6371 15.3259 47.0354 13.7369 46.9436C12.1479 46.8517 10.619 46.2737 9.33765 45.2804C8.05635 44.2872 7.07847 42.9219 6.52399 41.3521C5.96951 39.7823 5.86256 38.0764 6.21627 36.4435C6.55607 34.9105 7.29548 33.5075 8.35139 32.3924C9.4073 31.2773 10.7378 30.4942 12.1935 30.1312C13.4622 29.8095 14.7854 29.8095 16.0542 30.1312C16.1342 30.1572 16.2195 30.1592 16.3005 30.1368C16.3816 30.1144 16.455 30.0686 16.5126 30.0046C17.3975 28.9436 18.4798 28.0849 19.6926 27.4816C20.9054 26.8783 22.2229 26.5432 23.5636 26.497C24.9044 26.4508 26.2399 26.6946 27.4876 27.2131C28.7352 27.7317 29.8686 28.5141 30.8175 29.5119C30.9232 29.6266 31.1703 29.8883 32.0107 29.8883C33.2284 29.8869 34.4307 30.1744 35.5283 30.7294C36.6259 31.2844 37.5905 32.0927 38.3504 33.0941C38.4272 33.2113 38.5369 33.3004 38.6641 33.349C39.4488 33.2563 40.2432 33.3307 41 33.5679C41.9232 33.8579 42.7597 34.3937 43.4286 35.1234C44.0975 35.8531 44.5763 36.7521 44.8185 37.7334C45.0819 38.7577 45.082 39.8372 44.8187 40.8615C44.5553 41.8858 44.038 42.8181 43.3197 43.5629C42.6015 44.3076 41.708 44.8381 40.7309 45.1C39.7537 45.3619 38.728 45.3458 37.7587 45.0533C37.3116 44.9216 37.2206 45.002 37.18 45.0362C35.7299 46.3124 33.8978 47.0081 32.0074 47.0001ZM28.1288 42.5677C28.6889 42.5672 29.2404 42.7118 29.7349 42.9885C30.5832 43.4474 31.5394 43.6385 32.4884 43.5389C33.4375 43.4394 34.3391 43.0534 35.0846 42.4274C35.5751 42.005 36.1607 41.7223 36.785 41.6067C37.4093 41.4911 38.0513 41.5463 38.6495 41.7671C39.0684 41.8953 39.5124 41.9028 39.9351 41.7889C40.3577 41.675 40.7436 41.4438 41.0524 41.1195C41.3613 40.7952 41.5818 40.3896 41.6909 39.9451C41.8001 39.5005 41.7939 39.0333 41.673 38.5921C41.5691 38.1846 41.3685 37.8116 41.0902 37.5079C40.8119 37.2042 40.4648 36.9798 40.0816 36.8558C39.7429 36.7499 39.3877 36.7156 39.0363 36.7549C38.4213 36.812 37.8025 36.703 37.2387 36.4381C36.6748 36.1731 36.1846 35.7611 35.8145 35.2409C34.1223 32.5039 30.3461 34.1102 28.4995 31.924C27.8666 31.2595 27.111 30.7386 26.2794 30.3935C25.4478 30.0484 24.5577 29.8864 23.6642 29.9175C22.7707 29.9486 21.8928 30.1721 21.0846 30.5743C20.2765 30.9765 19.5553 31.5488 18.9655 32.2558C18.517 32.7943 17.9358 33.1919 17.286 33.4047C16.6363 33.6175 15.9434 33.6373 15.2837 33.4619C14.5092 33.2685 13.7026 33.2685 12.9282 33.4619C12.1366 33.6713 11.4076 34.0866 10.8081 34.6695C10.2085 35.2524 9.75764 35.9844 9.4967 36.7983C9.23576 37.6123 9.17314 38.4821 9.31457 39.3281C9.45599 40.1741 9.79695 40.9692 10.3062 41.6405C11.054 42.5921 12.0966 43.2358 13.2507 43.4586C14.4048 43.6814 15.5966 43.4689 16.6166 42.8585C17.2402 42.4629 17.9508 42.2448 18.6787 42.2256C19.4066 42.2064 20.1267 42.3868 20.7683 42.7491C21.6742 43.2591 22.6808 43.5393 23.7079 43.5672C24.735 43.5952 25.754 43.37 26.6837 42.9099C27.1351 42.6838 27.6289 42.5669 28.1288 42.5677ZM43.1831 31.6041C43.0456 31.6041 42.9086 31.5862 42.7751 31.551C42.5683 31.4948 42.3741 31.3963 42.2035 31.2611C42.0329 31.1259 41.8893 30.9566 41.7809 30.7629C41.6726 30.5693 41.6015 30.355 41.5718 30.1324C41.5421 29.9099 41.5544 29.6833 41.608 29.4657C41.7887 28.717 41.8103 27.9355 41.6714 27.1769C41.5019 26.3158 41.1265 25.5145 40.5806 24.8488C40.0348 24.183 39.3365 23.6749 38.5519 23.3724C37.611 22.9979 36.5807 22.9517 35.6129 23.2406C34.9891 23.4351 34.3247 23.4322 33.7025 23.2323C33.0802 23.0325 32.5275 22.6446 32.1131 22.1167C31.4435 21.2724 30.59 20.6108 29.6251 20.1883C28.6603 19.7658 27.6127 19.5949 26.5716 19.6902C25.5305 19.7854 24.5267 20.144 23.6456 20.7354C22.7645 21.3267 22.0323 22.1334 21.5112 23.0867C21.1732 23.7339 20.6482 24.2512 20.0123 24.5637C19.3764 24.8762 18.6625 24.9676 17.974 24.8247C17.4956 24.7219 17.0006 24.7436 16.5321 24.888C16.0259 25.0406 15.5609 25.3162 15.1746 25.6927C14.7883 26.0692 14.4916 26.536 14.3083 27.0554C14.2355 27.2667 14.1239 27.4608 13.9798 27.6267C13.8357 27.7926 13.662 27.927 13.4686 28.0222C13.2751 28.1174 13.0658 28.1716 12.8524 28.1817C12.6391 28.1918 12.4259 28.1576 12.2252 28.081C12.0244 28.0044 11.8399 27.8869 11.6823 27.7353C11.5247 27.5836 11.397 27.4008 11.3065 27.1973C11.216 26.9937 11.1645 26.7734 11.1549 26.5488C11.1453 26.3243 11.1778 26.1 11.2506 25.8888C11.6081 24.857 12.1935 23.9294 12.9586 23.1826C13.7237 22.4357 14.6465 21.891 15.651 21.5933C16.6181 21.3036 17.6372 21.2626 18.6226 21.4735C19.4008 20.0276 20.5004 18.8017 21.8272 17.9007C23.154 16.9997 24.6685 16.4505 26.241 16.3C27.8136 16.1495 29.3974 16.4022 30.8569 17.0366C32.3163 17.671 33.608 18.668 34.6213 19.9425C36.0012 19.5238 37.4618 19.4968 38.8547 19.8642C40.2477 20.2316 41.5236 20.9803 42.5527 22.0343C43.5819 23.0883 44.3277 24.4101 44.7145 25.8655C45.1013 27.3209 45.1153 28.8581 44.7551 30.3211C44.6651 30.6879 44.4619 31.013 44.1774 31.2452C43.8929 31.4774 43.5432 31.6036 43.1831 31.6041ZM8.17182 23.0508C7.86543 23.0498 7.56551 22.9578 7.30666 22.7853C7.04781 22.6128 6.84057 22.3668 6.70882 22.0757C6.26471 21.0939 6.02367 20.0242 6.00166 18.9371C5.97964 17.8501 6.17714 16.7705 6.5811 15.7697C6.98506 14.769 7.58627 13.8699 8.345 13.1318C9.10372 12.3938 10.0027 11.8336 10.9824 11.4884C12.2768 11.0148 13.6741 10.9477 15.0041 11.2951C14.9878 11.2951 15.0463 11.2438 15.0886 11.1531C15.7815 9.71919 16.8117 8.49579 18.081 7.59933C19.3503 6.70287 20.8165 6.1632 22.34 6.03168C23.8635 5.90016 25.3937 6.18117 26.7848 6.84795C28.176 7.51474 29.3818 8.54512 30.2876 9.84101C31.7579 9.29369 33.3545 9.24698 34.8515 9.7075C36.3484 10.168 37.6697 11.1124 38.6283 12.407C38.9323 12.8159 39.1062 12.8364 39.2786 12.8586C39.3289 12.8586 39.4931 12.8911 39.5435 12.9014C40.2138 13.0547 40.846 13.3549 41.3988 13.7822C41.9517 14.2096 42.4128 14.7546 42.7524 15.3819C42.9658 15.7761 43.0216 16.2434 42.9076 16.681C42.7936 17.1186 42.5191 17.4906 42.1444 17.7152C41.7698 17.9398 41.3257 17.9985 40.9099 17.8786C40.4941 17.7586 40.1406 17.4697 39.9272 17.0754C39.8146 16.8658 39.6613 16.6836 39.4773 16.5406C39.2933 16.3977 39.0826 16.2972 38.8592 16.2457C38.3048 16.1808 37.7698 15.9932 37.2893 15.6951C36.8088 15.397 36.3937 14.9953 36.0713 14.5163C35.5378 13.7815 34.7957 13.2448 33.9528 12.9839C33.1098 12.7231 32.2097 12.7517 31.3832 13.0656C30.736 13.3325 30.0226 13.3643 29.3562 13.1561C28.6898 12.9478 28.1085 12.5114 27.7046 11.916C27.1365 11.0783 26.3727 10.4087 25.4871 9.97209C24.6014 9.53545 23.6238 9.34643 22.6485 9.42329C21.6732 9.50015 20.7332 9.84029 19.9192 10.4109C19.1052 10.9815 18.4448 11.7632 18.0016 12.6807C17.6771 13.41 17.1245 14 16.4364 14.3521C15.7482 14.7043 14.966 14.7972 14.2205 14.6155C13.4936 14.4263 12.7299 14.4662 12.0244 14.7301C11.4791 14.9195 10.9784 15.2288 10.5556 15.6375C10.1327 16.0463 9.79731 16.545 9.57174 17.1007C9.34617 17.6564 9.23557 18.2562 9.24729 18.8603C9.25901 19.4644 9.39277 20.059 9.6397 20.6045C9.75755 20.8649 9.81093 21.1524 9.79487 21.4403C9.77882 21.7282 9.69385 22.0072 9.54787 22.2513C9.40189 22.4954 9.19963 22.6967 8.9599 22.8364C8.72018 22.9762 8.45076 23.0499 8.1767 23.0508H8.17182Z" stroke="#F88D43" stroke-width="12" mask="url(#path-1-outside-1_194_39)"/>
</svg>
